<?xml version="1.0" encoding="utf-8"?>
<!-- Generator: Adobe Illustrator 16.0.0, SVG Export Plug-In . SVG Version: 6.00 Build 0)  -->
<!DOCTYPE svg PUBLIC "-//W3C//DTD SVG 1.1//EN" "http://www.w3.org/Graphics/SVG/1.1/DTD/svg11.dtd">
<svg version="1.1" id="Layer_1" xmlns="http://www.w3.org/2000/svg" xmlns:xlink="http://www.w3.org/1999/xlink" x="0px" y="0px"
	 width="66px" height="66px" viewBox="0 0 66 66" enable-background="new 0 0 66 66" xml:space="preserve">
<g>
	<g>
		<path fill="#B7874E" d="M52.605,7.501c0,1.912-2.332,3.499-5.201,3.499H18.6c-2.875,0-5.203-1.587-5.203-3.499l0,0
			C13.396,5.587,15.725,4,18.6,4h28.805C50.273,4,52.605,5.587,52.605,7.501L52.605,7.501z"/>
		<path fill="#93591B" d="M35,4h12.404c2.869,0,5.201,1.606,5.201,3.521l0,0c0,1.912-2.329,3.435-5.198,3.435"/>
		<polygon fill="#494949" points="46.32,62 19.678,62 11.484,8 54.518,8 		"/>
		<polyline fill="#282828" points="11,8 54.518,8 46.32,62 		"/>
		<polyline points="11,8 54.518,8 49.801,39.149 		"/>
		<rect x="7" y="7" fill="#B7874E" width="52" height="6"/>
		<polyline fill="#93591B" points="7,7 59,7 59,13 		"/>
		<polygon fill="#878787" points="47.162,56 18.844,56 19.049,58 46.951,58 		"/>
	</g>
	<polygon fill="#FCF170" points="48.752,46 52.271,23 13.73,23 17.248,46 	"/>
	<polyline fill="#F2B233" points="48.752,46 52.271,23 14,23 	"/>
	<g>
		<path d="M32,25.426c-4,0.684-7.129,4.438-7.129,8.979c0,4.539,3.129,8.293,7.129,8.977V25.426z"/>
		<path d="M34,25.426v17.955c4-0.684,7.129-4.438,7.129-8.977C41.129,29.863,38,26.109,34,25.426z"/>
	</g>
</g>
</svg>
